<svg width="150" height="150" viewBox="0 0 150 150" fill="currentColor" xmlns="http://www.w3.org/2000/svg">
  <path d="m 65.331008,132.8833 v -17.11673 h 9.66899 9.668983 v 17.11673 17.11673 h -9.668983 -9.66899 z m -54.748056,6.40177 -6.791326,-6.79511 23.647433,-23.64851 23.647433,-23.64851 6.861589,6.85793 6.86159,6.85792 -23.584608,23.58569 c -12.971534,12.97212 -23.644497,23.58569 -23.717696,23.58569 -0.07319,0 -3.189185,-3.05781 -6.924415,-6.7951 z m 98.191988,-16.79059 -23.58462,-23.58569 6.8616,-6.85792 6.86157,-6.85793 23.64744,23.64851 23.64744,23.64851 -6.79134,6.79511 c -3.73522,3.73729 -6.85121,6.7951 -6.9244,6.7951 -0.0732,0 -10.74617,-10.61357 -23.71769,-23.58569 z M 0,75 v -9.66898 h 17.116724 17.116725 v 9.66898 9.669 H 17.116724 0 Z m 115.76654,0 v -9.66898 h 17.11673 17.11673 v 9.66898 9.669 H 132.88327 115.76654 Z M 27.438427,41.15794 3.790362,17.50879 10.649757,10.6494 17.509153,3.79 41.159592,27.44044 64.810029,51.09088 57.948261,57.94897 51.086492,64.80708 Z m 64.612584,16.79031 -6.8581,-6.86176 23.64915,-23.648063 23.64915,-23.648065 6.85939,6.859396 6.8594,6.859395 L 122.5596,41.15959 98.90916,64.81003 Z M 65.853656,17.11672 V 0 h 9.668989 9.668986 V 17.11672 34.23345 h -9.668986 -9.668989 z"/>
</svg>
