<?xml version="1.0" encoding="UTF-8" standalone="no"?>
<!-- Created with Inkscape (http://www.inkscape.org/) -->

<svg
   width="150"
   height="149.99998"
   viewBox="0 0 150 149.99998"
   version="1.1"
   id="svg1"
   xml:space="preserve"
   xmlns:inkscape="http://www.inkscape.org/namespaces/inkscape"
   xmlns:sodipodi="http://sodipodi.sourceforge.net/DTD/sodipodi-0.dtd"
   xmlns="http://www.w3.org/2000/svg"
   xmlns:svg="http://www.w3.org/2000/svg"><sodipodi:namedview
     id="namedview1"
     pagecolor="#ffffff"
     bordercolor="#000000"
     borderopacity="0.25"
     inkscape:showpageshadow="2"
     inkscape:pageopacity="0.0"
     inkscape:pagecheckerboard="0"
     inkscape:deskcolor="#d1d1d1"
     inkscape:document-units="px" /><defs
     id="defs1" /><g
     inkscape:label="Livello 1"
     inkscape:groupmode="layer"
     id="layer1"
     transform="translate(-14.528149,-13.88703)"><path
       style="fill:#000000;stroke-width:1.56794"
       d="m 79.859157,146.7703 v -17.11673 h 9.66899 9.668983 v 17.11673 17.11673 h -9.668983 -9.66899 z m -54.748056,6.40177 -6.791326,-6.79511 23.647433,-23.64851 23.647433,-23.64851 6.861589,6.85793 6.86159,6.85792 -23.584608,23.58569 c -12.971534,12.97212 -23.644497,23.58569 -23.717696,23.58569 -0.07319,0 -3.189185,-3.05781 -6.924415,-6.7951 z m 98.191989,-16.79059 -23.58462,-23.58569 6.8616,-6.85792 6.86157,-6.85793 23.64744,23.64851 23.64744,23.64851 -6.79134,6.79511 c -3.73522,3.73729 -6.85121,6.7951 -6.9244,6.7951 -0.0732,0 -10.74617,-10.61357 -23.71769,-23.58569 z M 14.528149,88.88702 v -9.66898 h 17.116724 17.116725 v 9.66898 9.669 H 31.644873 14.528149 Z m 115.766541,0 v -9.66898 h 17.11673 17.11673 v 9.66898 9.669 H 147.41142 130.29469 Z M 41.966576,55.04497 18.318511,31.39582 25.177907,24.536427 32.037302,17.677032 55.687741,41.327469 79.338178,64.97791 72.47641,71.836 65.614641,78.69411 Z m 64.612584,16.79031 -6.8581,-6.86176 23.64915,-23.648063 23.64915,-23.648065 6.85939,6.859396 6.8594,6.859395 L 137.0877,55.04662 113.43727,78.69706 Z M 80.381805,31.003754 V 13.88703 h 9.668989 9.668986 V 31.003754 48.12048 h -9.668986 -9.668989 z"
       id="path1" /></g></svg>
